<svg width="21" height="20" viewBox="0 0 21 20" fill="none" xmlns="http://www.w3.org/2000/svg">
<path d="M16.9744 14.617L20.5501 18.1919C20.9407 18.5824 20.9404 19.2159 20.5499 19.6065C20.1593 19.9971 19.5258 19.9973 19.1353 19.6067L15.5604 16.031C13.9671 17.3082 11.9854 18.0029 9.94336 18C4.97536 18 0.943359 13.968 0.943359 9C0.943359 4.032 4.97536 0 9.94336 0C14.9114 0 18.9434 4.032 18.9434 9C18.9463 11.042 18.2516 13.0237 16.9744 14.617ZM14.9684 13.875C16.2375 12.5699 16.9462 10.8204 16.9434 9C16.9434 5.132 13.8104 2 9.94336 2C6.07536 2 2.94336 5.132 2.94336 9C2.94336 12.867 6.07536 16 9.94336 16C11.7638 16.0029 13.5132 15.2941 14.8184 14.025L14.9684 13.875Z" fill="#202020"/>
</svg>
