<svg width="16" height="19" viewBox="0 0 16 19" fill="none" xmlns="http://www.w3.org/2000/svg">
<path d="M13.3033 13.4698L8 18.7731L2.69667 13.4698C1.64779 12.4209 0.933489 11.0845 0.644107 9.62965C0.354725 8.17479 0.503256 6.6668 1.07092 5.29636C1.63858 3.92592 2.59987 2.75458 3.83324 1.93048C5.0666 1.10637 6.51665 0.666504 8 0.666504C9.48336 0.666504 10.9334 1.10637 12.1668 1.93048C13.4001 2.75458 14.3614 3.92592 14.9291 5.29636C15.4968 6.6668 15.6453 8.17479 15.3559 9.62965C15.0665 11.0845 14.3522 12.4209 13.3033 13.4698ZM8 9.83311C8.44203 9.83311 8.86595 9.65751 9.17851 9.34495C9.49107 9.03239 9.66667 8.60847 9.66667 8.16644C9.66667 7.72441 9.49107 7.30049 9.17851 6.98793C8.86595 6.67537 8.44203 6.49977 8 6.49977C7.55798 6.49977 7.13405 6.67537 6.82149 6.98793C6.50893 7.30049 6.33334 7.72441 6.33334 8.16644C6.33334 8.60847 6.50893 9.03239 6.82149 9.34495C7.13405 9.65751 7.55798 9.83311 8 9.83311Z" fill="#00B046"/>
</svg>
