<svg width="18" height="18" viewBox="0 0 18 18" fill="none" xmlns="http://www.w3.org/2000/svg">
<path d="M0.869492 5.7119L8.57533 1.0919C8.70484 1.01419 8.85304 0.973145 9.00408 0.973145C9.15511 0.973145 9.30331 1.01419 9.43283 1.0919L17.1312 5.71274C17.1929 5.74975 17.244 5.80214 17.2795 5.86479C17.315 5.92745 17.3337 5.99823 17.3337 6.07024V16.6669C17.3337 16.8879 17.2459 17.0999 17.0896 17.2562C16.9333 17.4124 16.7213 17.5002 16.5003 17.5002H1.50033C1.27931 17.5002 1.06735 17.4124 0.91107 17.2562C0.75479 17.0999 0.666992 16.8879 0.666992 16.6669V6.0694C0.666977 5.9974 0.685624 5.92661 0.721113 5.86396C0.756603 5.8013 0.807725 5.74891 0.869492 5.7119ZM2.33366 6.77774V15.8336H15.667V6.7769L9.00366 2.7769L2.33366 6.7769V6.77774ZM9.05033 11.4152L13.4637 7.69607L14.537 8.97107L9.06199 13.5852L3.47033 8.9769L4.53033 7.69024L9.05033 11.4152Z" fill="#00B046"/>
</svg>
